<mxfile host="Electron" modified="2024-07-09T10:57:03.091Z" agent="Mozilla/5.0 (X11; Linux x86_64) AppleWebKit/537.36 (KHTML, like Gecko) draw.io/21.6.5 Chrome/114.0.5735.243 Electron/25.3.1 Safari/537.36" etag="ezyFdd0PA5WKmq_bLcQE" version="21.6.5" type="device">
  <diagram id="ow_ay0rVcJ7FydOs5dUe" name="Page-1">
    <mxGraphModel dx="1688" dy="683" grid="1" gridSize="10" guides="1" tooltips="1" connect="1" arrows="1" fold="1" page="1" pageScale="1" pageWidth="827" pageHeight="1169" math="0" shadow="0">
      <root>
        <mxCell id="0" />
        <mxCell id="1" parent="0" />
        <mxCell id="GO5h3d8LsVfJmVa6A8oP-1" value="&lt;font style=&quot;font-size: 14px&quot;&gt;:TS&lt;br&gt;:Module&lt;/font&gt;" style="ellipse;whiteSpace=wrap;html=1;aspect=fixed;" parent="1" vertex="1">
          <mxGeometry x="370" y="40" width="80" height="80" as="geometry" />
        </mxCell>
        <mxCell id="GO5h3d8LsVfJmVa6A8oP-3" value="&lt;font style=&quot;font-size: 14px&quot;&gt;:TS&lt;br&gt;:Module&lt;/font&gt;" style="ellipse;whiteSpace=wrap;html=1;aspect=fixed;" parent="1" vertex="1">
          <mxGeometry x="570" y="40" width="80" height="80" as="geometry" />
        </mxCell>
        <mxCell id="GO5h3d8LsVfJmVa6A8oP-4" value="&lt;font style=&quot;font-size: 14px&quot;&gt;:TS&lt;br&gt;:Class&lt;/font&gt;" style="ellipse;whiteSpace=wrap;html=1;aspect=fixed;" parent="1" vertex="1">
          <mxGeometry x="370" y="200" width="80" height="80" as="geometry" />
        </mxCell>
        <mxCell id="GO5h3d8LsVfJmVa6A8oP-21" style="rounded=0;orthogonalLoop=1;jettySize=auto;html=1;exitX=1;exitY=0.5;exitDx=0;exitDy=0;entryX=0;entryY=0.5;entryDx=0;entryDy=0;fontFamily=Fira Code;fontSize=10;dashed=1;endArrow=open;endFill=0;" parent="1" source="GO5h3d8LsVfJmVa6A8oP-5" target="GO5h3d8LsVfJmVa6A8oP-3" edge="1">
          <mxGeometry relative="1" as="geometry" />
        </mxCell>
        <mxCell id="fGATjnk45c_Ob2iV2BoJ-3" value="2" style="edgeLabel;html=1;align=center;verticalAlign=middle;resizable=0;points=[];" parent="GO5h3d8LsVfJmVa6A8oP-21" vertex="1" connectable="0">
          <mxGeometry x="-0.5858" y="-1" relative="1" as="geometry">
            <mxPoint y="-4" as="offset" />
          </mxGeometry>
        </mxCell>
        <mxCell id="GO5h3d8LsVfJmVa6A8oP-5" value="&lt;font style=&quot;font-size: 14px&quot;&gt;:TS&lt;br&gt;:Method&lt;/font&gt;" style="ellipse;whiteSpace=wrap;html=1;aspect=fixed;" parent="1" vertex="1">
          <mxGeometry x="370" y="360" width="80" height="80" as="geometry" />
        </mxCell>
        <mxCell id="GO5h3d8LsVfJmVa6A8oP-6" value="&lt;font style=&quot;font-size: 14px&quot;&gt;:TS&lt;br&gt;:Class&lt;/font&gt;" style="ellipse;whiteSpace=wrap;html=1;aspect=fixed;" parent="1" vertex="1">
          <mxGeometry x="570" y="200" width="80" height="80" as="geometry" />
        </mxCell>
        <mxCell id="GO5h3d8LsVfJmVa6A8oP-7" value="&lt;font style=&quot;font-size: 14px&quot;&gt;:TS&lt;br&gt;:Property&lt;/font&gt;" style="ellipse;whiteSpace=wrap;html=1;aspect=fixed;" parent="1" vertex="1">
          <mxGeometry x="570" y="360" width="80" height="80" as="geometry" />
        </mxCell>
        <mxCell id="GO5h3d8LsVfJmVa6A8oP-19" value="" style="endArrow=classic;html=1;rounded=0;fontFamily=Fira Code;fontSize=10;exitX=1;exitY=0.5;exitDx=0;exitDy=0;entryX=0;entryY=0.5;entryDx=0;entryDy=0;strokeWidth=2;" parent="1" source="GO5h3d8LsVfJmVa6A8oP-5" target="GO5h3d8LsVfJmVa6A8oP-7" edge="1">
          <mxGeometry width="50" height="50" relative="1" as="geometry">
            <mxPoint x="480" y="470" as="sourcePoint" />
            <mxPoint x="530" y="420" as="targetPoint" />
          </mxGeometry>
        </mxCell>
        <mxCell id="fGATjnk45c_Ob2iV2BoJ-1" value="1" style="edgeLabel;html=1;align=center;verticalAlign=middle;resizable=0;points=[];" parent="GO5h3d8LsVfJmVa6A8oP-19" vertex="1" connectable="0">
          <mxGeometry x="-0.0267" relative="1" as="geometry">
            <mxPoint as="offset" />
          </mxGeometry>
        </mxCell>
        <mxCell id="GO5h3d8LsVfJmVa6A8oP-20" value="" style="endArrow=classic;html=1;rounded=0;fontFamily=Fira Code;fontSize=10;exitX=1;exitY=0.5;exitDx=0;exitDy=0;entryX=0;entryY=0.5;entryDx=0;entryDy=0;strokeWidth=2;" parent="1" source="GO5h3d8LsVfJmVa6A8oP-5" target="GO5h3d8LsVfJmVa6A8oP-6" edge="1">
          <mxGeometry width="50" height="50" relative="1" as="geometry">
            <mxPoint x="500" y="360" as="sourcePoint" />
            <mxPoint x="550" y="310" as="targetPoint" />
          </mxGeometry>
        </mxCell>
        <mxCell id="fGATjnk45c_Ob2iV2BoJ-2" value="1(+1)" style="edgeLabel;html=1;align=center;verticalAlign=middle;resizable=0;points=[];" parent="GO5h3d8LsVfJmVa6A8oP-20" vertex="1" connectable="0">
          <mxGeometry x="-0.2696" y="-1" relative="1" as="geometry">
            <mxPoint x="-3" y="9" as="offset" />
          </mxGeometry>
        </mxCell>
        <mxCell id="GO5h3d8LsVfJmVa6A8oP-28" value="" style="rounded=0;whiteSpace=wrap;html=1;fontFamily=Fira Code;fontSize=10;dashed=1;fillColor=#C4C4C4;" parent="1" vertex="1">
          <mxGeometry x="40" y="460" width="220" height="70" as="geometry" />
        </mxCell>
        <mxCell id="GO5h3d8LsVfJmVa6A8oP-29" value="" style="endArrow=classic;html=1;rounded=0;fontFamily=Fira Code;fontSize=10;strokeWidth=2;exitX=0.091;exitY=0.286;exitDx=0;exitDy=0;exitPerimeter=0;entryX=0.318;entryY=0.286;entryDx=0;entryDy=0;entryPerimeter=0;" parent="1" source="GO5h3d8LsVfJmVa6A8oP-28" target="GO5h3d8LsVfJmVa6A8oP-28" edge="1">
          <mxGeometry width="50" height="50" relative="1" as="geometry">
            <mxPoint x="110" y="420" as="sourcePoint" />
            <mxPoint x="110" y="470" as="targetPoint" />
          </mxGeometry>
        </mxCell>
        <mxCell id="GO5h3d8LsVfJmVa6A8oP-30" value="" style="endArrow=open;html=1;rounded=0;fontFamily=Fira Code;fontSize=10;strokeWidth=1;exitX=0.091;exitY=0.25;exitDx=0;exitDy=0;exitPerimeter=0;endFill=0;dashed=1;" parent="1" edge="1">
          <mxGeometry width="50" height="50" relative="1" as="geometry">
            <mxPoint x="59.999999999999986" y="510" as="sourcePoint" />
            <mxPoint x="109.98" y="510" as="targetPoint" />
          </mxGeometry>
        </mxCell>
        <mxCell id="GO5h3d8LsVfJmVa6A8oP-31" value="&lt;font face=&quot;Helvetica&quot; style=&quot;font-size: 11px;&quot;&gt;direct Dependency&lt;/font&gt;" style="text;html=1;strokeColor=none;fillColor=none;align=left;verticalAlign=middle;whiteSpace=wrap;rounded=0;dashed=1;fontFamily=Fira Code;fontSize=11;" parent="1" vertex="1">
          <mxGeometry x="120" y="470" width="130" height="20" as="geometry" />
        </mxCell>
        <mxCell id="GO5h3d8LsVfJmVa6A8oP-32" value="&lt;font face=&quot;Helvetica&quot; style=&quot;font-size: 11px;&quot;&gt;propagated Dependency&lt;/font&gt;" style="text;html=1;strokeColor=none;fillColor=none;align=left;verticalAlign=middle;whiteSpace=wrap;rounded=0;dashed=1;fontFamily=Fira Code;fontSize=11;" parent="1" vertex="1">
          <mxGeometry x="120" y="500" width="130" height="20" as="geometry" />
        </mxCell>
        <mxCell id="GO5h3d8LsVfJmVa6A8oP-33" value=":DECLARES" style="endArrow=classic;html=1;rounded=0;fontFamily=Helvetica;fontSize=10;strokeWidth=1;exitX=0.5;exitY=1;exitDx=0;exitDy=0;entryX=0.5;entryY=0;entryDx=0;entryDy=0;" parent="1" source="GO5h3d8LsVfJmVa6A8oP-1" target="GO5h3d8LsVfJmVa6A8oP-4" edge="1">
          <mxGeometry width="50" height="50" relative="1" as="geometry">
            <mxPoint x="390" y="180" as="sourcePoint" />
            <mxPoint x="440" y="130" as="targetPoint" />
          </mxGeometry>
        </mxCell>
        <mxCell id="GO5h3d8LsVfJmVa6A8oP-34" value=":DECLARES" style="endArrow=classic;html=1;rounded=0;fontFamily=Helvetica;fontSize=10;strokeWidth=1;exitX=0.5;exitY=1;exitDx=0;exitDy=0;entryX=0.5;entryY=0;entryDx=0;entryDy=0;" parent="1" edge="1">
          <mxGeometry width="50" height="50" relative="1" as="geometry">
            <mxPoint x="609.76" y="120" as="sourcePoint" />
            <mxPoint x="609.76" y="200" as="targetPoint" />
          </mxGeometry>
        </mxCell>
        <mxCell id="GO5h3d8LsVfJmVa6A8oP-35" value=":DECLARES" style="endArrow=classic;html=1;rounded=0;fontFamily=Helvetica;fontSize=10;strokeWidth=1;exitX=0.5;exitY=1;exitDx=0;exitDy=0;entryX=0.5;entryY=0;entryDx=0;entryDy=0;" parent="1" edge="1">
          <mxGeometry width="50" height="50" relative="1" as="geometry">
            <mxPoint x="409.76" y="280" as="sourcePoint" />
            <mxPoint x="409.76" y="360" as="targetPoint" />
          </mxGeometry>
        </mxCell>
        <mxCell id="GO5h3d8LsVfJmVa6A8oP-36" value=":DECLARES" style="endArrow=classic;html=1;rounded=0;fontFamily=Helvetica;fontSize=10;strokeWidth=1;exitX=0.5;exitY=1;exitDx=0;exitDy=0;entryX=0.5;entryY=0;entryDx=0;entryDy=0;" parent="1" edge="1">
          <mxGeometry width="50" height="50" relative="1" as="geometry">
            <mxPoint x="609.76" y="280" as="sourcePoint" />
            <mxPoint x="609.76" y="360" as="targetPoint" />
          </mxGeometry>
        </mxCell>
        <mxCell id="q9yKw26vV0jmoUGL-vqp-7" value="&lt;font style=&quot;font-size: 14px&quot;&gt;:TS&lt;br&gt;:Module&lt;/font&gt;" style="ellipse;whiteSpace=wrap;html=1;aspect=fixed;" vertex="1" parent="1">
          <mxGeometry x="40" y="40" width="80" height="80" as="geometry" />
        </mxCell>
        <mxCell id="q9yKw26vV0jmoUGL-vqp-8" value="&lt;font style=&quot;font-size: 14px&quot;&gt;:TS&lt;br&gt;:Module&lt;/font&gt;" style="ellipse;whiteSpace=wrap;html=1;aspect=fixed;" vertex="1" parent="1">
          <mxGeometry x="240" y="40" width="80" height="80" as="geometry" />
        </mxCell>
        <mxCell id="q9yKw26vV0jmoUGL-vqp-15" value="&lt;font style=&quot;font-size: 14px&quot;&gt;:TS&lt;br&gt;:Class&lt;/font&gt;" style="ellipse;whiteSpace=wrap;html=1;aspect=fixed;" vertex="1" parent="1">
          <mxGeometry x="40" y="200" width="80" height="80" as="geometry" />
        </mxCell>
        <mxCell id="q9yKw26vV0jmoUGL-vqp-18" value="&lt;font style=&quot;font-size: 14px&quot;&gt;:TS&lt;br&gt;:Method&lt;/font&gt;" style="ellipse;whiteSpace=wrap;html=1;aspect=fixed;" vertex="1" parent="1">
          <mxGeometry x="40" y="360" width="80" height="80" as="geometry" />
        </mxCell>
        <mxCell id="q9yKw26vV0jmoUGL-vqp-19" value="&lt;font style=&quot;font-size: 14px&quot;&gt;:TS&lt;br&gt;:Class&lt;/font&gt;" style="ellipse;whiteSpace=wrap;html=1;aspect=fixed;" vertex="1" parent="1">
          <mxGeometry x="240" y="200" width="80" height="80" as="geometry" />
        </mxCell>
        <mxCell id="q9yKw26vV0jmoUGL-vqp-20" value="&lt;font style=&quot;font-size: 14px&quot;&gt;:TS&lt;br&gt;:Property&lt;/font&gt;" style="ellipse;whiteSpace=wrap;html=1;aspect=fixed;" vertex="1" parent="1">
          <mxGeometry x="240" y="360" width="80" height="80" as="geometry" />
        </mxCell>
        <mxCell id="q9yKw26vV0jmoUGL-vqp-21" value="" style="endArrow=classic;html=1;rounded=0;fontFamily=Fira Code;fontSize=10;exitX=1;exitY=0.5;exitDx=0;exitDy=0;entryX=0;entryY=0.5;entryDx=0;entryDy=0;strokeWidth=2;" edge="1" parent="1" source="q9yKw26vV0jmoUGL-vqp-18" target="q9yKw26vV0jmoUGL-vqp-20">
          <mxGeometry width="50" height="50" relative="1" as="geometry">
            <mxPoint x="150" y="470" as="sourcePoint" />
            <mxPoint x="200" y="420" as="targetPoint" />
          </mxGeometry>
        </mxCell>
        <mxCell id="q9yKw26vV0jmoUGL-vqp-22" value="1" style="edgeLabel;html=1;align=center;verticalAlign=middle;resizable=0;points=[];" vertex="1" connectable="0" parent="q9yKw26vV0jmoUGL-vqp-21">
          <mxGeometry x="-0.0267" relative="1" as="geometry">
            <mxPoint as="offset" />
          </mxGeometry>
        </mxCell>
        <mxCell id="q9yKw26vV0jmoUGL-vqp-23" value="" style="endArrow=classic;html=1;rounded=0;fontFamily=Fira Code;fontSize=10;exitX=1;exitY=0.5;exitDx=0;exitDy=0;entryX=0;entryY=0.5;entryDx=0;entryDy=0;strokeWidth=2;" edge="1" parent="1" source="q9yKw26vV0jmoUGL-vqp-18" target="q9yKw26vV0jmoUGL-vqp-19">
          <mxGeometry width="50" height="50" relative="1" as="geometry">
            <mxPoint x="170" y="360" as="sourcePoint" />
            <mxPoint x="220" y="310" as="targetPoint" />
          </mxGeometry>
        </mxCell>
        <mxCell id="q9yKw26vV0jmoUGL-vqp-24" value="1" style="edgeLabel;html=1;align=center;verticalAlign=middle;resizable=0;points=[];" vertex="1" connectable="0" parent="q9yKw26vV0jmoUGL-vqp-23">
          <mxGeometry x="-0.2696" y="-1" relative="1" as="geometry">
            <mxPoint x="-3" y="3" as="offset" />
          </mxGeometry>
        </mxCell>
        <mxCell id="q9yKw26vV0jmoUGL-vqp-25" value=":DECLARES" style="endArrow=classic;html=1;rounded=0;fontFamily=Helvetica;fontSize=10;strokeWidth=1;exitX=0.5;exitY=1;exitDx=0;exitDy=0;entryX=0.5;entryY=0;entryDx=0;entryDy=0;" edge="1" parent="1" source="q9yKw26vV0jmoUGL-vqp-7" target="q9yKw26vV0jmoUGL-vqp-15">
          <mxGeometry width="50" height="50" relative="1" as="geometry">
            <mxPoint x="60" y="180" as="sourcePoint" />
            <mxPoint x="110" y="130" as="targetPoint" />
          </mxGeometry>
        </mxCell>
        <mxCell id="q9yKw26vV0jmoUGL-vqp-26" value=":DECLARES" style="endArrow=classic;html=1;rounded=0;fontFamily=Helvetica;fontSize=10;strokeWidth=1;exitX=0.5;exitY=1;exitDx=0;exitDy=0;entryX=0.5;entryY=0;entryDx=0;entryDy=0;" edge="1" parent="1">
          <mxGeometry width="50" height="50" relative="1" as="geometry">
            <mxPoint x="279.76" y="120" as="sourcePoint" />
            <mxPoint x="279.76" y="200" as="targetPoint" />
          </mxGeometry>
        </mxCell>
        <mxCell id="q9yKw26vV0jmoUGL-vqp-27" value=":DECLARES" style="endArrow=classic;html=1;rounded=0;fontFamily=Helvetica;fontSize=10;strokeWidth=1;exitX=0.5;exitY=1;exitDx=0;exitDy=0;entryX=0.5;entryY=0;entryDx=0;entryDy=0;" edge="1" parent="1">
          <mxGeometry width="50" height="50" relative="1" as="geometry">
            <mxPoint x="79.75999999999999" y="280" as="sourcePoint" />
            <mxPoint x="79.75999999999999" y="360" as="targetPoint" />
          </mxGeometry>
        </mxCell>
        <mxCell id="q9yKw26vV0jmoUGL-vqp-28" value=":DECLARES" style="endArrow=classic;html=1;rounded=0;fontFamily=Helvetica;fontSize=10;strokeWidth=1;exitX=0.5;exitY=1;exitDx=0;exitDy=0;entryX=0.5;entryY=0;entryDx=0;entryDy=0;" edge="1" parent="1">
          <mxGeometry width="50" height="50" relative="1" as="geometry">
            <mxPoint x="279.76" y="280" as="sourcePoint" />
            <mxPoint x="279.76" y="360" as="targetPoint" />
          </mxGeometry>
        </mxCell>
        <mxCell id="q9yKw26vV0jmoUGL-vqp-29" style="edgeStyle=none;rounded=0;orthogonalLoop=1;jettySize=auto;html=1;exitX=1;exitY=0.5;exitDx=0;exitDy=0;dashed=1;fontFamily=Fira Code;fontSize=10;endArrow=open;endFill=0;" edge="1" parent="1" source="q9yKw26vV0jmoUGL-vqp-35">
          <mxGeometry relative="1" as="geometry">
            <mxPoint x="900" y="80.09523809523807" as="targetPoint" />
          </mxGeometry>
        </mxCell>
        <mxCell id="q9yKw26vV0jmoUGL-vqp-30" value="2" style="edgeLabel;html=1;align=center;verticalAlign=middle;resizable=0;points=[];" vertex="1" connectable="0" parent="q9yKw26vV0jmoUGL-vqp-29">
          <mxGeometry x="-0.54" y="-2" relative="1" as="geometry">
            <mxPoint y="-2" as="offset" />
          </mxGeometry>
        </mxCell>
        <mxCell id="q9yKw26vV0jmoUGL-vqp-31" style="edgeStyle=none;rounded=0;orthogonalLoop=1;jettySize=auto;html=1;exitX=1;exitY=0.5;exitDx=0;exitDy=0;entryX=0;entryY=0.5;entryDx=0;entryDy=0;dashed=1;fontFamily=Fira Code;fontSize=10;endArrow=open;endFill=0;" edge="1" parent="1" source="q9yKw26vV0jmoUGL-vqp-35" target="q9yKw26vV0jmoUGL-vqp-47">
          <mxGeometry relative="1" as="geometry" />
        </mxCell>
        <mxCell id="q9yKw26vV0jmoUGL-vqp-32" value="2" style="edgeLabel;html=1;align=center;verticalAlign=middle;resizable=0;points=[];" vertex="1" connectable="0" parent="q9yKw26vV0jmoUGL-vqp-31">
          <mxGeometry x="-0.5976" relative="1" as="geometry">
            <mxPoint x="1" y="-1" as="offset" />
          </mxGeometry>
        </mxCell>
        <mxCell id="q9yKw26vV0jmoUGL-vqp-33" style="edgeStyle=none;rounded=0;orthogonalLoop=1;jettySize=auto;html=1;exitX=1;exitY=0.5;exitDx=0;exitDy=0;dashed=1;fontFamily=Fira Code;fontSize=10;endArrow=open;endFill=0;" edge="1" parent="1" source="q9yKw26vV0jmoUGL-vqp-35">
          <mxGeometry relative="1" as="geometry">
            <mxPoint x="900" y="400" as="targetPoint" />
          </mxGeometry>
        </mxCell>
        <mxCell id="q9yKw26vV0jmoUGL-vqp-34" value="1" style="edgeLabel;html=1;align=center;verticalAlign=middle;resizable=0;points=[];" vertex="1" connectable="0" parent="q9yKw26vV0jmoUGL-vqp-33">
          <mxGeometry x="-0.7414" y="1" relative="1" as="geometry">
            <mxPoint x="-1" y="4" as="offset" />
          </mxGeometry>
        </mxCell>
        <mxCell id="q9yKw26vV0jmoUGL-vqp-35" value="&lt;font style=&quot;font-size: 14px&quot;&gt;:TS&lt;br&gt;:Module&lt;/font&gt;" style="ellipse;whiteSpace=wrap;html=1;aspect=fixed;" vertex="1" parent="1">
          <mxGeometry x="700" y="40" width="80" height="80" as="geometry" />
        </mxCell>
        <mxCell id="q9yKw26vV0jmoUGL-vqp-36" value="&lt;font style=&quot;font-size: 14px&quot;&gt;:TS&lt;br&gt;:Module&lt;/font&gt;" style="ellipse;whiteSpace=wrap;html=1;aspect=fixed;" vertex="1" parent="1">
          <mxGeometry x="900" y="40" width="80" height="80" as="geometry" />
        </mxCell>
        <mxCell id="q9yKw26vV0jmoUGL-vqp-37" style="edgeStyle=none;rounded=0;orthogonalLoop=1;jettySize=auto;html=1;exitX=1;exitY=0.5;exitDx=0;exitDy=0;entryX=0;entryY=0.5;entryDx=0;entryDy=0;dashed=1;fontFamily=Fira Code;fontSize=10;endArrow=open;endFill=0;" edge="1" parent="1" source="q9yKw26vV0jmoUGL-vqp-43" target="q9yKw26vV0jmoUGL-vqp-47">
          <mxGeometry relative="1" as="geometry" />
        </mxCell>
        <mxCell id="q9yKw26vV0jmoUGL-vqp-38" value="2" style="edgeLabel;html=1;align=center;verticalAlign=middle;resizable=0;points=[];" vertex="1" connectable="0" parent="q9yKw26vV0jmoUGL-vqp-37">
          <mxGeometry x="-0.72" relative="1" as="geometry">
            <mxPoint x="2" as="offset" />
          </mxGeometry>
        </mxCell>
        <mxCell id="q9yKw26vV0jmoUGL-vqp-39" style="edgeStyle=none;rounded=0;orthogonalLoop=1;jettySize=auto;html=1;exitX=1;exitY=0.5;exitDx=0;exitDy=0;entryX=0;entryY=0.5;entryDx=0;entryDy=0;dashed=1;fontFamily=Fira Code;fontSize=10;endArrow=open;endFill=0;" edge="1" parent="1" source="q9yKw26vV0jmoUGL-vqp-43" target="q9yKw26vV0jmoUGL-vqp-48">
          <mxGeometry relative="1" as="geometry" />
        </mxCell>
        <mxCell id="q9yKw26vV0jmoUGL-vqp-40" value="1" style="edgeLabel;html=1;align=center;verticalAlign=middle;resizable=0;points=[];" vertex="1" connectable="0" parent="q9yKw26vV0jmoUGL-vqp-39">
          <mxGeometry x="-0.684" y="-1" relative="1" as="geometry">
            <mxPoint as="offset" />
          </mxGeometry>
        </mxCell>
        <mxCell id="q9yKw26vV0jmoUGL-vqp-41" style="edgeStyle=none;rounded=0;orthogonalLoop=1;jettySize=auto;html=1;exitX=1;exitY=0.5;exitDx=0;exitDy=0;entryX=0;entryY=0.5;entryDx=0;entryDy=0;dashed=1;fontFamily=Fira Code;fontSize=10;endArrow=open;endFill=0;" edge="1" parent="1" source="q9yKw26vV0jmoUGL-vqp-43" target="q9yKw26vV0jmoUGL-vqp-36">
          <mxGeometry relative="1" as="geometry" />
        </mxCell>
        <mxCell id="q9yKw26vV0jmoUGL-vqp-42" value="2" style="edgeLabel;html=1;align=center;verticalAlign=middle;resizable=0;points=[];" vertex="1" connectable="0" parent="q9yKw26vV0jmoUGL-vqp-41">
          <mxGeometry x="-0.7488" y="-2" relative="1" as="geometry">
            <mxPoint y="-5" as="offset" />
          </mxGeometry>
        </mxCell>
        <mxCell id="q9yKw26vV0jmoUGL-vqp-43" value="&lt;font style=&quot;font-size: 14px&quot;&gt;:TS&lt;br&gt;:Class&lt;/font&gt;" style="ellipse;whiteSpace=wrap;html=1;aspect=fixed;" vertex="1" parent="1">
          <mxGeometry x="700" y="200" width="80" height="80" as="geometry" />
        </mxCell>
        <mxCell id="q9yKw26vV0jmoUGL-vqp-44" style="rounded=0;orthogonalLoop=1;jettySize=auto;html=1;exitX=1;exitY=0.5;exitDx=0;exitDy=0;entryX=0;entryY=0.5;entryDx=0;entryDy=0;fontFamily=Fira Code;fontSize=10;dashed=1;endArrow=open;endFill=0;" edge="1" parent="1" source="q9yKw26vV0jmoUGL-vqp-46" target="q9yKw26vV0jmoUGL-vqp-36">
          <mxGeometry relative="1" as="geometry" />
        </mxCell>
        <mxCell id="q9yKw26vV0jmoUGL-vqp-45" value="2" style="edgeLabel;html=1;align=center;verticalAlign=middle;resizable=0;points=[];" vertex="1" connectable="0" parent="q9yKw26vV0jmoUGL-vqp-44">
          <mxGeometry x="-0.5858" y="-1" relative="1" as="geometry">
            <mxPoint y="-4" as="offset" />
          </mxGeometry>
        </mxCell>
        <mxCell id="q9yKw26vV0jmoUGL-vqp-46" value="&lt;font style=&quot;font-size: 14px&quot;&gt;:TS&lt;br&gt;:Method&lt;/font&gt;" style="ellipse;whiteSpace=wrap;html=1;aspect=fixed;" vertex="1" parent="1">
          <mxGeometry x="700" y="360" width="80" height="80" as="geometry" />
        </mxCell>
        <mxCell id="q9yKw26vV0jmoUGL-vqp-47" value="&lt;font style=&quot;font-size: 14px&quot;&gt;:TS&lt;br&gt;:Class&lt;/font&gt;" style="ellipse;whiteSpace=wrap;html=1;aspect=fixed;" vertex="1" parent="1">
          <mxGeometry x="900" y="200" width="80" height="80" as="geometry" />
        </mxCell>
        <mxCell id="q9yKw26vV0jmoUGL-vqp-48" value="&lt;font style=&quot;font-size: 14px&quot;&gt;:TS&lt;br&gt;:Property&lt;/font&gt;" style="ellipse;whiteSpace=wrap;html=1;aspect=fixed;" vertex="1" parent="1">
          <mxGeometry x="900" y="360" width="80" height="80" as="geometry" />
        </mxCell>
        <mxCell id="q9yKw26vV0jmoUGL-vqp-49" value="" style="endArrow=classic;html=1;rounded=0;fontFamily=Fira Code;fontSize=10;exitX=1;exitY=0.5;exitDx=0;exitDy=0;entryX=0;entryY=0.5;entryDx=0;entryDy=0;strokeWidth=2;" edge="1" parent="1" source="q9yKw26vV0jmoUGL-vqp-46" target="q9yKw26vV0jmoUGL-vqp-48">
          <mxGeometry width="50" height="50" relative="1" as="geometry">
            <mxPoint x="810" y="470" as="sourcePoint" />
            <mxPoint x="860" y="420" as="targetPoint" />
          </mxGeometry>
        </mxCell>
        <mxCell id="q9yKw26vV0jmoUGL-vqp-50" value="1" style="edgeLabel;html=1;align=center;verticalAlign=middle;resizable=0;points=[];" vertex="1" connectable="0" parent="q9yKw26vV0jmoUGL-vqp-49">
          <mxGeometry x="-0.0267" relative="1" as="geometry">
            <mxPoint as="offset" />
          </mxGeometry>
        </mxCell>
        <mxCell id="q9yKw26vV0jmoUGL-vqp-51" value="" style="endArrow=classic;html=1;rounded=0;fontFamily=Fira Code;fontSize=10;exitX=1;exitY=0.5;exitDx=0;exitDy=0;entryX=0;entryY=0.5;entryDx=0;entryDy=0;strokeWidth=2;" edge="1" parent="1" source="q9yKw26vV0jmoUGL-vqp-46" target="q9yKw26vV0jmoUGL-vqp-47">
          <mxGeometry width="50" height="50" relative="1" as="geometry">
            <mxPoint x="830" y="360" as="sourcePoint" />
            <mxPoint x="880" y="310" as="targetPoint" />
          </mxGeometry>
        </mxCell>
        <mxCell id="q9yKw26vV0jmoUGL-vqp-52" value="2" style="edgeLabel;html=1;align=center;verticalAlign=middle;resizable=0;points=[];" vertex="1" connectable="0" parent="q9yKw26vV0jmoUGL-vqp-51">
          <mxGeometry x="-0.2696" y="-1" relative="1" as="geometry">
            <mxPoint x="-3" y="9" as="offset" />
          </mxGeometry>
        </mxCell>
        <mxCell id="q9yKw26vV0jmoUGL-vqp-53" value=":DECLARES" style="endArrow=classic;html=1;rounded=0;fontFamily=Helvetica;fontSize=10;strokeWidth=1;exitX=0.5;exitY=1;exitDx=0;exitDy=0;entryX=0.5;entryY=0;entryDx=0;entryDy=0;" edge="1" parent="1" source="q9yKw26vV0jmoUGL-vqp-35" target="q9yKw26vV0jmoUGL-vqp-43">
          <mxGeometry width="50" height="50" relative="1" as="geometry">
            <mxPoint x="720" y="180" as="sourcePoint" />
            <mxPoint x="770" y="130" as="targetPoint" />
          </mxGeometry>
        </mxCell>
        <mxCell id="q9yKw26vV0jmoUGL-vqp-54" value=":DECLARES" style="endArrow=classic;html=1;rounded=0;fontFamily=Helvetica;fontSize=10;strokeWidth=1;exitX=0.5;exitY=1;exitDx=0;exitDy=0;entryX=0.5;entryY=0;entryDx=0;entryDy=0;" edge="1" parent="1">
          <mxGeometry width="50" height="50" relative="1" as="geometry">
            <mxPoint x="939.76" y="120" as="sourcePoint" />
            <mxPoint x="939.76" y="200" as="targetPoint" />
          </mxGeometry>
        </mxCell>
        <mxCell id="q9yKw26vV0jmoUGL-vqp-55" value=":DECLARES" style="endArrow=classic;html=1;rounded=0;fontFamily=Helvetica;fontSize=10;strokeWidth=1;exitX=0.5;exitY=1;exitDx=0;exitDy=0;entryX=0.5;entryY=0;entryDx=0;entryDy=0;" edge="1" parent="1">
          <mxGeometry width="50" height="50" relative="1" as="geometry">
            <mxPoint x="739.76" y="280" as="sourcePoint" />
            <mxPoint x="739.76" y="360" as="targetPoint" />
          </mxGeometry>
        </mxCell>
        <mxCell id="q9yKw26vV0jmoUGL-vqp-56" value=":DECLARES" style="endArrow=classic;html=1;rounded=0;fontFamily=Helvetica;fontSize=10;strokeWidth=1;exitX=0.5;exitY=1;exitDx=0;exitDy=0;entryX=0.5;entryY=0;entryDx=0;entryDy=0;" edge="1" parent="1">
          <mxGeometry width="50" height="50" relative="1" as="geometry">
            <mxPoint x="939.76" y="280" as="sourcePoint" />
            <mxPoint x="939.76" y="360" as="targetPoint" />
          </mxGeometry>
        </mxCell>
        <mxCell id="q9yKw26vV0jmoUGL-vqp-57" value="" style="shape=flexArrow;endArrow=classic;html=1;rounded=0;" edge="1" parent="1">
          <mxGeometry width="50" height="50" relative="1" as="geometry">
            <mxPoint x="330" y="239.70999999999998" as="sourcePoint" />
            <mxPoint x="360" y="239.70999999999998" as="targetPoint" />
          </mxGeometry>
        </mxCell>
        <mxCell id="q9yKw26vV0jmoUGL-vqp-58" value="" style="shape=flexArrow;endArrow=classic;html=1;rounded=0;" edge="1" parent="1">
          <mxGeometry width="50" height="50" relative="1" as="geometry">
            <mxPoint x="660" y="239.70999999999998" as="sourcePoint" />
            <mxPoint x="690" y="239.70999999999998" as="targetPoint" />
          </mxGeometry>
        </mxCell>
      </root>
    </mxGraphModel>
  </diagram>
</mxfile>
